<?xml version="1.0" encoding="UTF-8"?>
<svg xmlns="http://www.w3.org/2000/svg" xmlns:xlink="http://www.w3.org/1999/xlink" width="24px" height="24px" viewBox="0 0 24 24" version="1.1">
<g id="surface1">
<path style=" stroke:none;fill-rule:nonzero;fill:rgb(0%,0%,0%);fill-opacity:1;" d="M 21 1.5 C 21.828125 1.5 22.5 2.171875 22.5 3 L 22.5 21 C 22.5 21.828125 21.828125 22.5 21 22.5 L 3 22.5 C 2.171875 22.5 1.5 21.828125 1.5 21 L 1.5 3 C 1.5 2.171875 2.171875 1.5 3 1.5 Z M 3 0 C 1.34375 0 0 1.34375 0 3 L 0 21 C 0 22.65625 1.34375 24 3 24 L 21 24 C 22.65625 24 24 22.65625 24 21 L 24 3 C 24 1.34375 22.65625 0 21 0 Z M 3 0 "/>
<path style=" stroke:none;fill-rule:nonzero;fill:rgb(0%,0%,0%);fill-opacity:1;" d="M 6 12 C 6 11.585938 6.335938 11.25 6.75 11.25 L 17.25 11.25 C 17.664062 11.25 18 11.585938 18 12 C 18 12.414062 17.664062 12.75 17.25 12.75 L 6.75 12.75 C 6.335938 12.75 6 12.414062 6 12 Z M 6 12 "/>
</g>
</svg>
