<?xml version="1.0" encoding="UTF-8"?>
<svg xmlns="http://www.w3.org/2000/svg" xmlns:xlink="http://www.w3.org/1999/xlink" width="24px" height="24px" viewBox="0 0 24 24" version="1.1">
<g id="surface1">
<path style=" stroke:none;fill-rule:nonzero;fill:rgb(0%,0%,0%);fill-opacity:1;" d="M 16.414062 6 L 7.585938 6 L 7.5 9 L 8.25 9 C 8.519531 7.355469 8.785156 7.210938 10.789062 7.148438 L 11.230469 7.132812 L 11.230469 16.265625 C 11.230469 16.972656 11.082031 17.140625 9.882812 17.25 L 9.882812 18 L 14.113281 18 L 14.113281 17.25 C 12.910156 17.140625 12.761719 16.972656 12.761719 16.269531 L 12.761719 7.132812 L 13.207031 7.148438 C 15.214844 7.210938 15.476562 7.359375 15.75 9 L 16.5 9 Z M 16.414062 6 "/>
<path style=" stroke:none;fill-rule:nonzero;fill:rgb(0%,0%,0%);fill-opacity:1;" d="M 6 0 C 4.34375 0 3 1.34375 3 3 L 3 21 C 3 22.65625 4.34375 24 6 24 L 18 24 C 19.65625 24 21 22.65625 21 21 L 21 3 C 21 1.34375 19.65625 0 18 0 Z M 6 1.5 L 18 1.5 C 18.828125 1.5 19.5 2.171875 19.5 3 L 19.5 21 C 19.5 21.828125 18.828125 22.5 18 22.5 L 6 22.5 C 5.171875 22.5 4.5 21.828125 4.5 21 L 4.5 3 C 4.5 2.171875 5.171875 1.5 6 1.5 Z M 6 1.5 "/>
</g>
</svg>
