<?xml version="1.0" encoding="UTF-8"?>
<svg xmlns="http://www.w3.org/2000/svg" xmlns:xlink="http://www.w3.org/1999/xlink" width="24px" height="24px" viewBox="0 0 24 24" version="1.1">
<g id="surface1">
<path style=" stroke:none;fill-rule:nonzero;fill:#dddddd;fill-opacity:1;" d="M 3 3 L 6 3 L 6 6 L 3 6 Z M 3 3 "/>
<path style=" stroke:none;fill-rule:nonzero;fill:#dddddd;fill-opacity:1;" d="M 9 0 L 9 9 L 0 9 L 0 0 Z M 7.5 1.5 L 1.5 1.5 L 1.5 7.5 L 7.5 7.5 Z M 6 18 L 3 18 L 3 21 L 6 21 Z M 6 18 "/>
<path style=" stroke:none;fill-rule:nonzero;fill:#dddddd;fill-opacity:1;" d="M 9 15 L 9 24 L 0 24 L 0 15 Z M 1.5 16.5 L 1.5 22.5 L 7.5 22.5 L 7.5 16.5 Z M 18 3 L 21 3 L 21 6 L 18 6 Z M 18 3 "/>
<path style=" stroke:none;fill-rule:nonzero;fill:#dddddd;fill-opacity:1;" d="M 15 0 L 15 9 L 24 9 L 24 0 Z M 22.5 1.5 L 22.5 7.5 L 16.5 7.5 L 16.5 1.5 Z M 12 1.5 L 12 0 L 13.5 0 L 13.5 3 L 12 3 L 12 6 L 10.5 6 L 10.5 1.5 Z M 12 9 L 12 6 L 13.5 6 L 13.5 9 Z M 9 12 L 9 10.5 L 10.5 10.5 L 10.5 9 L 12 9 L 12 12 L 13.5 12 L 13.5 10.5 L 21 10.5 L 21 12 L 15 12 L 15 13.5 L 10.5 13.5 L 10.5 12 Z M 9 12 L 9 13.5 L 3 13.5 L 3 12 L 1.5 12 L 1.5 13.5 L 0 13.5 L 0 10.5 L 4.5 10.5 L 4.5 12 Z M 24 13.5 L 22.5 13.5 L 22.5 10.5 L 24 10.5 Z M 22.5 13.5 L 21 13.5 L 21 16.5 L 24 16.5 L 24 15 L 22.5 15 Z M 16.5 13.5 L 19.5 13.5 L 19.5 15 L 18 15 L 18 16.5 L 16.5 16.5 Z M 19.5 18 L 19.5 16.5 L 18 16.5 L 18 18 L 16.5 18 L 16.5 19.5 L 13.5 19.5 L 13.5 21 L 18 21 L 18 18 Z M 19.5 18 L 24 18 L 24 19.5 L 21 19.5 L 21 21 L 19.5 21 Z M 13.5 16.5 L 13.5 18 L 15 18 L 15 15 L 10.5 15 L 10.5 16.5 Z M 13.5 16.5 "/>
<path style=" stroke:none;fill-rule:nonzero;fill:#dddddd;fill-opacity:1;" d="M 10.5 18 L 12 18 L 12 22.5 L 18 22.5 L 18 24 L 10.5 24 Z M 24 21 L 24 24 L 19.5 24 L 19.5 22.5 L 22.5 22.5 L 22.5 21 Z M 24 21 "/>
</g>
</svg>
