<?xml version="1.0" encoding="UTF-8"?>
<svg xmlns="http://www.w3.org/2000/svg" xmlns:xlink="http://www.w3.org/1999/xlink" width="24px" height="24px" viewBox="0 0 24 24" version="1.1">
<g id="surface1">
<path style=" stroke:none;fill-rule:evenodd;fill:rgb(0%,0%,0%);fill-opacity:1;" d="M 6 18.75 C 6 18.335938 6.335938 18 6.75 18 L 17.25 18 C 17.664062 18 18 18.335938 18 18.75 C 18 19.164062 17.664062 19.5 17.25 19.5 L 6.75 19.5 C 6.335938 19.5 6 19.164062 6 18.75 Z M 3 14.25 C 3 13.835938 3.335938 13.5 3.75 13.5 L 20.25 13.5 C 20.664062 13.5 21 13.835938 21 14.25 C 21 14.664062 20.664062 15 20.25 15 L 3.75 15 C 3.335938 15 3 14.664062 3 14.25 Z M 6 9.75 C 6 9.335938 6.335938 9 6.75 9 L 17.25 9 C 17.664062 9 18 9.335938 18 9.75 C 18 10.164062 17.664062 10.5 17.25 10.5 L 6.75 10.5 C 6.335938 10.5 6 10.164062 6 9.75 Z M 3 5.25 C 3 4.835938 3.335938 4.5 3.75 4.5 L 20.25 4.5 C 20.664062 4.5 21 4.835938 21 5.25 C 21 5.664062 20.664062 6 20.25 6 L 3.75 6 C 3.335938 6 3 5.664062 3 5.25 Z M 3 5.25 "/>
</g>
</svg>
