<?xml version="1.0" encoding="UTF-8"?>
<svg xmlns="http://www.w3.org/2000/svg" xmlns:xlink="http://www.w3.org/1999/xlink" width="24px" height="24px" viewBox="0 0 24 24" version="1.1">
<g id="surface1">
<path style=" stroke:none;fill-rule:evenodd;fill:#dddddd;fill-opacity:1;" d="M 9 18.75 C 9 18.335938 9.335938 18 9.75 18 L 20.25 18 C 20.664062 18 21 18.335938 21 18.75 C 21 19.164062 20.664062 19.5 20.25 19.5 L 9.75 19.5 C 9.335938 19.5 9 19.164062 9 18.75 Z M 3 14.25 C 3 13.835938 3.335938 13.5 3.75 13.5 L 20.25 13.5 C 20.664062 13.5 21 13.835938 21 14.25 C 21 14.664062 20.664062 15 20.25 15 L 3.75 15 C 3.335938 15 3 14.664062 3 14.25 Z M 9 9.75 C 9 9.335938 9.335938 9 9.75 9 L 20.25 9 C 20.664062 9 21 9.335938 21 9.75 C 21 10.164062 20.664062 10.5 20.25 10.5 L 9.75 10.5 C 9.335938 10.5 9 10.164062 9 9.75 Z M 3 5.25 C 3 4.835938 3.335938 4.5 3.75 4.5 L 20.25 4.5 C 20.664062 4.5 21 4.835938 21 5.25 C 21 5.664062 20.664062 6 20.25 6 L 3.75 6 C 3.335938 6 3 5.664062 3 5.25 Z M 3 5.25 "/>
</g>
</svg>
