<?xml version="1.0" encoding="UTF-8"?>
<svg xmlns="http://www.w3.org/2000/svg" xmlns:xlink="http://www.w3.org/1999/xlink" width="24px" height="24px" viewBox="0 0 24 24" version="1.1">
<g id="surface1">
<path style=" stroke:none;fill-rule:nonzero;fill:rgb(0%,0%,0%);fill-opacity:1;" d="M 4.5 6.75 C 4.5 6.335938 4.835938 6 5.25 6 C 5.664062 6 6 6.335938 6 6.75 L 6 17.25 C 6 17.664062 5.664062 18 5.25 18 C 4.835938 18 4.5 17.664062 4.5 17.25 Z M 7.5 6.75 C 7.5 6.335938 7.835938 6 8.25 6 C 8.664062 6 9 6.335938 9 6.75 L 9 17.25 C 9 17.664062 8.664062 18 8.25 18 C 7.835938 18 7.5 17.664062 7.5 17.25 Z M 10.5 6.75 C 10.5 6.335938 10.835938 6 11.25 6 C 11.664062 6 12 6.335938 12 6.75 L 12 17.25 C 12 17.664062 11.664062 18 11.25 18 C 10.835938 18 10.5 17.664062 10.5 17.25 Z M 13.5 6.75 C 13.5 6.335938 13.835938 6 14.25 6 L 15.75 6 C 16.164062 6 16.5 6.335938 16.5 6.75 L 16.5 17.25 C 16.5 17.664062 16.164062 18 15.75 18 L 14.25 18 C 13.835938 18 13.5 17.664062 13.5 17.25 Z M 18 6.75 C 18 6.335938 18.335938 6 18.75 6 C 19.164062 6 19.5 6.335938 19.5 6.75 L 19.5 17.25 C 19.5 17.664062 19.164062 18 18.75 18 C 18.335938 18 18 17.664062 18 17.25 Z M 18 6.75 "/>
</g>
</svg>
